<svg width="48" height="48" viewBox="0 0 48 48" fill="none" xmlns="http://www.w3.org/2000/svg">
<mask id="mask0_516_7" style="mask-type:alpha" maskUnits="userSpaceOnUse" x="0" y="0" width="48" height="48">
<rect width="48" height="48" fill="#D9D9D9"/>
</mask>
<g mask="url(#mask0_516_7)">
<path d="M7.42501 40.85C7.27501 41.05 7.11251 41.2126 6.93751 41.3376C6.76251 41.4626 6.56668 41.5417 6.35001 41.5751C6.20001 41.6751 6.01251 41.7459 5.78751 41.7875C5.56251 41.8292 5.30001 41.8001 5.00001 41.7001C4.45001 41.5167 4.06668 41.175 3.85001 40.675C3.63335 40.175 3.59168 39.7084 3.72501 39.2751C4.37501 38.5251 5.18335 38.075 6.15001 37.925C7.11668 37.775 8.08335 37.8 9.05001 38C9.43335 38.1334 9.82085 38.2709 10.2125 38.4125C10.6042 38.5542 10.95 38.5167 11.25 38.3C11.5833 38.2167 11.7167 38.0584 11.65 37.8251C11.5833 37.5917 11.4333 37.3251 11.2 37.0251C10.8833 36.1751 10.6708 35.2542 10.5625 34.2626C10.4542 33.2709 10.6417 32.375 11.125 31.575C11.775 30.825 12.5792 30.375 13.5375 30.225C14.4958 30.075 15.4667 30.1 16.45 30.3C16.8333 30.4334 17.2292 30.5709 17.6375 30.7125C18.0458 30.8542 18.4 30.8167 18.7 30.6C19.05 30.5167 19.1792 30.3584 19.0875 30.125C18.9958 29.8917 18.8333 29.625 18.6 29.325C18.2833 28.475 18.0708 27.5542 17.9625 26.5625C17.8542 25.5709 18.0417 24.675 18.525 23.875C19.175 23.125 19.9792 22.675 20.9375 22.525C21.8958 22.375 22.8667 22.4 23.85 22.6C24.2333 22.7334 24.6292 22.8709 25.0375 23.0125C25.4458 23.1542 25.8 23.1167 26.1 22.9C26.45 22.8167 26.5792 22.6584 26.4875 22.425C26.3958 22.1917 26.2333 21.925 26 21.625C25.6667 20.7584 25.4542 19.8334 25.3625 18.85C25.2708 17.8667 25.475 16.975 25.975 16.175C26.625 15.425 27.4292 14.975 28.3875 14.825C29.3458 14.675 30.3167 14.7 31.3 14.9C31.6833 15.0334 32.0792 15.1709 32.4875 15.3125C32.8958 15.4542 33.25 15.4167 33.55 15.2C33.9 15.1167 34.0292 14.9584 33.9375 14.725C33.8458 14.4917 33.6833 14.225 33.45 13.925C33.1167 13.0584 32.9042 12.1334 32.8125 11.15C32.7208 10.1667 32.925 9.27505 33.425 8.47505C34.0583 7.70838 34.8583 7.25422 35.825 7.11255C36.7917 6.97088 37.7667 7.00005 38.75 7.20005C39.0833 7.40005 39.3708 7.52505 39.6125 7.57505C39.8542 7.62505 40.0833 7.45005 40.3 7.05005C40.55 6.56672 40.9417 6.25838 41.475 6.12505C42.0083 5.99172 42.5167 6.05005 43 6.30005C43.55 6.48338 43.9333 6.82505 44.15 7.32505C44.3667 7.82505 44.4167 8.28338 44.3 8.70005C43.65 9.48338 42.8417 9.95422 41.875 10.1125C40.9083 10.2709 39.9417 10.25 38.975 10.05C38.575 9.91672 38.1708 9.77922 37.7625 9.63755C37.3542 9.49588 37 9.53338 36.7 9.75005C36.35 9.83338 36.2208 9.99172 36.3125 10.225C36.4042 10.4584 36.575 10.7167 36.825 11C37.1417 11.8834 37.3458 12.8167 37.4375 13.8C37.5292 14.7834 37.3333 15.675 36.85 16.475C36.1833 17.225 35.3667 17.6792 34.4 17.8375C33.4333 17.9959 32.4667 17.9667 31.5 17.75C31.1167 17.6167 30.7292 17.4792 30.3375 17.3375C29.9458 17.1959 29.6083 17.2334 29.325 17.45C28.975 17.5334 28.8333 17.6917 28.9 17.925C28.9667 18.1584 29.1167 18.4167 29.35 18.7C29.6667 19.5667 29.8792 20.4959 29.9875 21.4875C30.0958 22.4792 29.9167 23.3667 29.45 24.15C28.7833 24.9 27.9667 25.3542 27 25.5125C26.0333 25.6709 25.0667 25.6417 24.1 25.425C23.7167 25.2917 23.3292 25.1709 22.9375 25.0625C22.5458 24.9542 22.2083 25 21.925 25.2C21.575 25.3 21.4333 25.4542 21.5 25.6625C21.5667 25.8709 21.7167 26.1167 21.95 26.4C22.2667 27.2667 22.4875 28.1959 22.6125 29.1875C22.7375 30.1792 22.55 31.075 22.05 31.875C21.3833 32.6417 20.5583 33.0959 19.575 33.2375C18.5917 33.3792 17.6167 33.3417 16.65 33.125C16.2667 32.9917 15.8792 32.8709 15.4875 32.7625C15.0958 32.6542 14.75 32.7 14.45 32.9C14.1 33 13.9708 33.1542 14.0625 33.3625C14.1542 33.5709 14.325 33.8167 14.575 34.1C14.8917 34.9834 15.0958 35.9167 15.1875 36.9001C15.2792 37.8834 15.0833 38.7751 14.6 39.5751C13.9333 40.3251 13.1167 40.775 12.15 40.925C11.1833 41.075 10.2167 41.0417 9.25001 40.8251C8.86668 40.6917 8.51668 40.5917 8.20001 40.5251C7.88335 40.4584 7.62501 40.5667 7.42501 40.85ZM12 21.925C9.25001 21.925 6.90835 20.9584 4.97501 19.025C3.04168 17.0917 2.07501 14.75 2.07501 12C2.07501 9.21672 3.04168 6.86255 4.97501 4.93755C6.90835 3.01255 9.25001 2.05005 12 2.05005C14.7833 2.05005 17.1375 3.01255 19.0625 4.93755C20.9875 6.86255 21.95 9.21672 21.95 12C21.95 14.75 20.9875 17.0917 19.0625 19.025C17.1375 20.9584 14.7833 21.925 12 21.925ZM30.95 45.925C30.1333 45.925 29.45 45.65 28.9 45.1C28.35 44.55 28.075 43.8667 28.075 43.05V30.925C28.075 30.125 28.35 29.4459 28.9 28.8875C29.45 28.3292 30.1333 28.05 30.95 28.05H43.075C43.875 28.05 44.5542 28.3292 45.1125 28.8875C45.6708 29.4459 45.95 30.125 45.95 30.925V43.05C45.95 43.8667 45.6708 44.55 45.1125 45.1C44.5542 45.65 43.875 45.925 43.075 45.925H30.95Z" fill="#D7EB6E"/>
</g>
</svg>
