<svg width="48" height="48" viewBox="0 0 48 48" fill="none" xmlns="http://www.w3.org/2000/svg">
<mask id="mask0_516_19" style="mask-type:alpha" maskUnits="userSpaceOnUse" x="0" y="0" width="48" height="48">
<rect width="48" height="48" fill="#D9D9D9"/>
</mask>
<g mask="url(#mask0_516_19)">
<path d="M16.628 37.2692C16.276 37.4731 15.9091 37.5053 15.5272 37.3659C15.1454 37.2265 14.8697 36.9712 14.7 36.6L11.7 30.6C11.5333 30.25 11.5069 29.8874 11.6207 29.512C11.7345 29.1367 11.9679 28.8658 12.3207 28.6995C12.6736 28.5332 13.0501 28.5073 13.4503 28.6217C13.8505 28.7361 14.1338 28.9705 14.3 29.325L17.3 35.325C17.4667 35.675 17.4843 36.0398 17.353 36.4192C17.2217 36.7986 16.9801 37.082 16.628 37.2692ZM34.628 37.2692C34.276 37.4731 33.9091 37.5053 33.5272 37.3659C33.1454 37.2265 32.8697 36.9712 32.7 36.6L23.7 18.6C23.5333 18.25 23.5069 17.8874 23.6207 17.512C23.7345 17.1367 23.9679 16.8658 24.3207 16.6995C24.6736 16.5332 25.0501 16.5073 25.4503 16.6217C25.8505 16.7361 26.1338 16.9705 26.3 17.325L35.3 35.325C35.4667 35.675 35.4843 36.0398 35.353 36.4192C35.2217 36.7986 34.9801 37.082 34.628 37.2692ZM25.4912 37.425C25.0804 37.425 24.7417 37.2888 24.475 37.0163C24.2083 36.7438 24.075 36.4021 24.075 35.9913C24.075 35.5805 24.2112 35.2375 24.4837 34.9625C24.7563 34.6875 25.0979 34.55 25.5087 34.55C25.9196 34.55 26.2625 34.6905 26.5375 34.9713C26.8125 35.2522 26.95 35.598 26.95 36.0088C26.95 36.4196 26.8096 36.7584 26.5287 37.025C26.2479 37.2917 25.902 37.425 25.4912 37.425ZM44.6189 37.2692C44.273 37.4731 43.9091 37.5053 43.5272 37.3659C43.1454 37.2265 42.8697 36.9712 42.7 36.6L41.7 34.6C41.5333 34.25 41.5069 33.8874 41.6207 33.512C41.7345 33.1367 41.9679 32.8658 42.3207 32.6995C42.6736 32.5332 43.0501 32.5073 43.4503 32.6217C43.8505 32.7361 44.1338 32.9705 44.3 33.325L45.3 35.325C45.45 35.675 45.4605 36.0398 45.3314 36.4192C45.2023 36.7986 44.9648 37.082 44.6189 37.2692ZM22.6189 31.2692C22.273 31.4731 21.9082 31.5113 21.5247 31.3837C21.1411 31.2561 20.8746 31.0199 20.725 30.675L11.725 12.675C11.5583 12.325 11.5308 11.9499 11.6424 11.5495C11.754 11.1492 11.9831 10.8658 12.3299 10.6995C12.6766 10.5499 13.0501 10.5305 13.4503 10.6414C13.8505 10.7523 14.1338 10.9802 14.3 11.325L23.3 29.325C23.45 29.675 23.4605 30.0398 23.3314 30.4192C23.2023 30.7986 22.9648 31.082 22.6189 31.2692ZM39.9912 29.425C39.5804 29.425 39.2417 29.2888 38.975 29.0163C38.7083 28.7438 38.575 28.4021 38.575 27.9913C38.575 27.5805 38.7112 27.2375 38.9837 26.9625C39.2563 26.6875 39.5979 26.55 40.0087 26.55C40.4196 26.55 40.7625 26.6905 41.0375 26.9713C41.3125 27.2522 41.45 27.598 41.45 28.0088C41.45 28.4196 41.3096 28.7584 41.0287 29.025C40.7479 29.2917 40.402 29.425 39.9912 29.425ZM9.99124 25.425C9.58041 25.425 9.24166 25.2888 8.97499 25.0163C8.70833 24.7438 8.57499 24.4021 8.57499 23.9913C8.57499 23.5805 8.71124 23.2375 8.98374 22.9625C9.25628 22.6875 9.59794 22.55 10.0087 22.55C10.4196 22.55 10.7625 22.6905 11.0375 22.9713C11.3125 23.2522 11.45 23.598 11.45 24.0088C11.45 24.4196 11.3096 24.7584 11.0287 25.025C10.7479 25.2917 10.402 25.425 9.99124 25.425ZM37.6189 23.2692C37.273 23.4731 36.9167 23.5042 36.55 23.3625C36.1833 23.2209 35.9 22.9667 35.7 22.6L30.7 12.6C30.5333 12.25 30.5069 11.8874 30.6207 11.512C30.7345 11.1367 30.9679 10.8658 31.3207 10.6995C31.6736 10.5332 32.0501 10.5073 32.4503 10.6217C32.8505 10.7361 33.1338 10.9705 33.3 11.325L38.3 21.325C38.45 21.675 38.4605 22.0398 38.3314 22.4192C38.2023 22.7986 37.9648 23.082 37.6189 23.2692ZM7.61889 19.2692C7.27296 19.4731 6.90823 19.5113 6.52469 19.3837C6.14113 19.2561 5.87456 19.0199 5.72499 18.675L2.72499 12.675C2.55833 12.325 2.53079 11.9499 2.64239 11.5495C2.75396 11.1492 2.98313 10.8658 3.32989 10.6995C3.67663 10.5499 4.05009 10.5305 4.45029 10.6414C4.85053 10.7523 5.13376 10.9802 5.29999 11.325L8.29999 17.325C8.44999 17.675 8.46046 18.0398 8.33139 18.4192C8.20233 18.7986 7.96483 19.082 7.61889 19.2692ZM22.4912 13.425C22.0804 13.425 21.7417 13.2888 21.475 13.0163C21.2083 12.7438 21.075 12.4021 21.075 11.9913C21.075 11.5805 21.2112 11.2375 21.4837 10.9625C21.7563 10.6875 22.0979 10.55 22.5087 10.55C22.9196 10.55 23.2625 10.6905 23.5375 10.9713C23.8125 11.2522 23.95 11.598 23.95 12.0088C23.95 12.4196 23.8096 12.7584 23.5287 13.025C23.2479 13.2917 22.902 13.425 22.4912 13.425Z" fill="#D7EB6E"/>
</g>
</svg>
