<svg width="24" height="24" viewBox="0 0 24 24" fill="none" xmlns="http://www.w3.org/2000/svg">
<g clip-path="url(#clip0_24_5)">
<mask id="mask0_24_5" style="mask-type:alpha" maskUnits="userSpaceOnUse" x="0" y="0" width="24" height="24">
<rect x="24" width="24" height="24" transform="rotate(90 24 0)" fill="#D9D9D9"/>
</mask>
<g mask="url(#mask0_24_5)">
<path d="M16 12L11 7L9.6 8.4L12.175 11L2 11V13L12.175 13L9.6 15.6L11 17L16 12ZM6.5 3.65C7.31667 3.11667 8.19167 2.70833 9.125 2.425C10.0583 2.14167 11.0167 2 12 2C13.3833 2 14.6833 2.2625 15.9 2.7875C17.1167 3.3125 18.175 4.025 19.075 4.925C19.975 5.825 20.6875 6.88333 21.2125 8.1C21.7375 9.31667 22 10.6167 22 12C22 13.3833 21.7375 14.6833 21.2125 15.9C20.6875 17.1167 19.975 18.175 19.075 19.075C18.175 19.975 17.1167 20.6875 15.9 21.2125C14.6833 21.7375 13.3833 22 12 22C11.0167 22 10.0583 21.8583 9.125 21.575C8.19167 21.2917 7.31667 20.8833 6.5 20.35L7.95 18.9C8.56667 19.2667 9.21667 19.5417 9.9 19.725C10.5833 19.9083 11.2833 20 12 20C14.2333 20 16.125 19.225 17.675 17.675C19.225 16.125 20 14.2333 20 12C20 9.76667 19.225 7.875 17.675 6.325C16.125 4.775 14.2333 4 12 4C11.2833 4 10.5833 4.09167 9.9 4.275C9.21667 4.45833 8.56667 4.73333 7.95 5.1L6.5 3.65Z" fill="#D7EB6E"/>
</g>
</g>
<defs>
<clipPath id="clip0_24_5">
<rect width="24" height="24" fill="white"/>
</clipPath>
</defs>
</svg>
