<svg width="48" height="48" viewBox="0 0 48 48" fill="none" xmlns="http://www.w3.org/2000/svg">
<mask id="mask0_516_13" style="mask-type:alpha" maskUnits="userSpaceOnUse" x="0" y="0" width="48" height="48">
<rect width="48" height="48" fill="#D9D9D9"/>
</mask>
<g mask="url(#mask0_516_13)">
<path d="M7.67499 41.7751C6.90935 41.7751 6.23879 41.4873 5.66329 40.9118C5.08775 40.3363 4.79999 39.6657 4.79999 38.9001V9.1001C4.79999 8.33446 5.08775 7.6639 5.66329 7.0884C6.23879 6.51286 6.90935 6.2251 7.67499 6.2251H37.4875C38.2271 6.2251 38.8891 6.51286 39.4734 7.0884C40.0578 7.6639 40.35 8.33446 40.35 9.1001V11.9751H43.225V14.8501H40.35V22.5501H43.225V25.4251H40.35V33.1501H43.225V36.0251H40.35V38.899C40.35 39.6643 40.0578 40.335 39.4734 40.911C38.8891 41.4871 38.2271 41.7751 37.4875 41.7751H7.67499ZM10.55 36.0251H23.275V25.9751H10.55V36.0251ZM24.7 19.1751H34.6V11.9751H24.7V19.1751ZM10.55 24.5251H23.275V11.9751H10.55V24.5251ZM24.7 36.0251H34.6V20.6251H24.7V36.0251Z" fill="#D7EB6E"/>
</g>
</svg>
